<svg width="15" height="14" viewBox="0 0 15 14" fill="none" xmlns="http://www.w3.org/2000/svg">
<path d="M14.1565 6.32115H3.54305L9.89549 0.892578C9.99707 0.805078 9.9354 0.642578 9.80116 0.642578H8.19582C8.12508 0.642578 8.05796 0.667578 8.00536 0.712221L1.15045 6.56758C1.08767 6.62115 1.03732 6.68739 1.00281 6.76179C0.968299 6.8362 0.950439 6.91703 0.950439 6.99883C0.950439 7.08062 0.968299 7.16146 1.00281 7.23586C1.03732 7.31027 1.08767 7.3765 1.15045 7.43008L8.04526 13.3211C8.07247 13.3444 8.10512 13.3569 8.13959 13.3569H9.79935C9.93358 13.3569 9.99526 13.1926 9.89368 13.1069L3.54305 7.67829H14.1565C14.2363 7.67829 14.3016 7.61401 14.3016 7.53543V6.46401C14.3016 6.38544 14.2363 6.32115 14.1565 6.32115Z" fill="black" fill-opacity="0.85"/>
</svg>
